<?xml version="1.0" encoding="UTF-8" standalone="no"?>
<svg
   id="Capa_1"
   data-name="Capa 1"
   viewBox="0 0 512.00001 511.99999"
   version="1.1"
   sodipodi:docname="isotipo.svg"
   inkscape:version="1.1 (c68e22c387, 2021-05-23)"
   width="512"
   height="512"
   xmlns:inkscape="http://www.inkscape.org/namespaces/inkscape"
   xmlns:sodipodi="http://sodipodi.sourceforge.net/DTD/sodipodi-0.dtd"
   xmlns="http://www.w3.org/2000/svg"
   xmlns:svg="http://www.w3.org/2000/svg">
  <sodipodi:namedview
     id="namedview13"
     pagecolor="#505050"
     bordercolor="#ffffff"
     borderopacity="1"
     inkscape:pageshadow="0"
     inkscape:pageopacity="0"
     inkscape:pagecheckerboard="1"
     showgrid="false"
     inkscape:zoom="0.75418842"
     inkscape:cx="161.10033"
     inkscape:cy="285.73761"
     inkscape:window-width="1366"
     inkscape:window-height="745"
     inkscape:window-x="-8"
     inkscape:window-y="-8"
     inkscape:window-maximized="1"
     inkscape:current-layer="Capa_1"
     fit-margin-top="0"
     fit-margin-left="0"
     fit-margin-right="0"
     fit-margin-bottom="0" />
  <defs
     id="defs4">
    <style
       id="style2">.cls-1{fill:#fff;}</style>
  </defs>
  <rect
     style="fill:#272727;fill-opacity:1;stroke-width:3.29198"
     id="rect852"
     width="512"
     height="512"
     x="-542.30481"
     y="-3.9777858"
     inkscape:export-filename="C:\Users\RodrigoBestardPino\projects\rankio\public\isotipooo.png"
     inkscape:export-xdpi="96"
     inkscape:export-ydpi="96" />
  <g
     id="g1063"
     transform="matrix(2.6286366,0,0,2.6286366,34.570929,12.03286)"
     inkscape:export-filename="C:\Users\RodrigoBestardPino\projects\rankio\public\isotipooo.png"
     inkscape:export-xdpi="96"
     inkscape:export-ydpi="96">
    <path
       class="cls-1"
       d="M 67.72,43.21 59.5,40.38 c -3.77,-1.3 -7.92,1.06 -9.29,5.27 l -27.72,85.61 c -1.36,4.21 0.58,8.68 4.35,10 l 8.22,2.83 c 3.77,1.3 7.93,-1.06 9.29,-5.28 l 27.72,-85.6 c 1.36,-4.21 -0.58,-8.7 -4.35,-10 z m -26.8,88.06 c -0.09,0.28 -0.05,0.7 -0.41,0.75 -0.36,0.05 -0.46,-0.35 -0.66,-0.59 -2.6,-3.17 -5.2,-6.36 -7.83,-9.52 a 1.25,1.25 0 0 1 -0.36,-1.34 c 1.42,-4.44 2.81,-8.89 4.21,-13.34 0,0 0.12,-0.09 0.25,-0.18 2.81,3.43 5.58,6.84 8.38,10.21 a 1.48,1.48 0 0 1 0.37,1.57 c -1.34,4.17 -2.64,8.29 -3.95,12.44 z m 8.86,-27.37 c -0.09,0.28 -0.05,0.7 -0.41,0.75 -0.36,0.05 -0.46,-0.35 -0.66,-0.58 -2.6,-3.18 -5.2,-6.36 -7.83,-9.52 A 1.26,1.26 0 0 1 40.53,93.2 c 1.42,-4.44 2.8,-8.89 4.2,-13.34 0,0 0.12,-0.08 0.25,-0.18 2.81,3.44 5.58,6.84 8.38,10.21 a 1.46,1.46 0 0 1 0.37,1.57 c -1.34,4.14 -2.64,8.29 -3.95,12.44 z m 9.06,-27.3 c -0.09,0.28 -0.05,0.71 -0.41,0.75 -0.36,0.04 -0.46,-0.35 -0.66,-0.58 -2.6,-3.18 -5.2,-6.36 -7.83,-9.52 A 1.26,1.26 0 0 1 49.59,65.9 c 1.41,-4.44 2.8,-8.89 4.2,-13.33 0,-0.06 0.12,-0.09 0.25,-0.19 2.81,3.44 5.58,6.84 8.38,10.21 a 1.46,1.46 0 0 1 0.37,1.57 c -1.34,4.14 -2.64,8.29 -3.95,12.44 z"
       transform="translate(-22.06,-13.48)"
       id="path6" />
    <circle
       class="cls-1"
       cx="47.439999"
       cy="12.25"
       r="12.25"
       id="circle8" />
    <path
       class="cls-1"
       d="M 113.21,52 49.1,138 a 13.75,13.75 0 0 0 2.81,19.18 l 52.65,39.22 a 13.74,13.74 0 0 0 19.18,-2.8 l 64.1,-86 A 13.75,13.75 0 0 0 185,88.39 L 132.39,49.16 A 13.75,13.75 0 0 0 113.21,52 Z m -16,48.93 c -1.38,-3.87 -2.75,-7.74 -4.16,-11.6 a 1.26,1.26 0 0 1 0.12,-1.39 q 4.24,-5.55 8.46,-11.13 c 0,0 0.14,0 0.29,-0.09 1.49,4.18 3,8.32 4.45,12.43 a 1.5,1.5 0 0 1 -0.18,1.61 c -2.66,3.45 -5.28,6.92 -7.92,10.38 -0.18,0.23 -0.28,0.65 -0.63,0.57 -0.35,-0.08 -0.33,-0.52 -0.43,-0.81 z m -17.37,22.89 c -1.38,-3.87 -2.75,-7.74 -4.16,-11.6 a 1.26,1.26 0 0 1 0.12,-1.39 Q 80,105.28 84.26,99.7 c 0,0 0.14,0 0.29,-0.09 1.45,4.18 2.94,8.32 4.45,12.39 a 1.46,1.46 0 0 1 -0.18,1.61 q -4,5.17 -7.91,10.38 c -0.18,0.23 -0.28,0.65 -0.64,0.57 -0.36,-0.08 -0.33,-0.45 -0.43,-0.74 z m -17,23.7 c -0.34,-0.07 -0.32,-0.49 -0.43,-0.77 -1.38,-3.87 -2.75,-7.74 -4.16,-11.61 a 1.26,1.26 0 0 1 0.12,-1.39 c 2.84,-3.7 5.64,-7.42 8.46,-11.13 0,-0.05 0.14,0 0.29,-0.09 1.49,4.19 3,8.32 4.45,12.44 a 1.5,1.5 0 0 1 -0.18,1.61 c -2.66,3.44 -5.28,6.91 -7.92,10.37 -0.13,0.23 -0.23,0.65 -0.58,0.57 z M 152,90.25 a 30.86,30.86 0 0 1 6.29,43.06 L 140,158 a 30.86,30.86 0 0 1 -43.06,6.29 v 0 A 30.86,30.86 0 0 1 90.65,121.23 L 109,96.54 a 30.86,30.86 0 0 1 43.06,-6.29 z M 123.46,66.57 a 1.48,1.48 0 0 1 -0.18,1.61 c -2.66,3.44 -5.28,6.91 -7.92,10.37 -0.17,0.24 -0.27,0.65 -0.63,0.58 -0.36,-0.07 -0.32,-0.5 -0.42,-0.78 -1.39,-3.87 -2.76,-7.74 -4.16,-11.6 a 1.26,1.26 0 0 1 0.12,-1.39 c 2.83,-3.7 5.63,-7.42 8.45,-11.13 0,0 0.14,0 0.3,-0.09 1.49,4.18 2.98,8.31 4.44,12.43 z"
       transform="translate(-22.06,-13.48)"
       id="path10" />
  </g>
</svg>
