<svg id="Capa_1" data-name="Capa 1" xmlns="http://www.w3.org/2000/svg" viewBox="0 0 168.48 185.63"><defs><style>.cls-1{fill:#fff;}</style></defs><path class="cls-1" d="M67.72,43.21,59.5,40.38c-3.77-1.3-7.92,1.06-9.29,5.27L22.49,131.26c-1.36,4.21.58,8.68,4.35,10l8.22,2.83c3.77,1.3,7.93-1.06,9.29-5.28l27.72-85.6C73.43,49,71.49,44.51,67.72,43.21Zm-26.8,88.06c-.09.28-.05.7-.41.75s-.46-.35-.66-.59c-2.6-3.17-5.2-6.36-7.83-9.52a1.25,1.25,0,0,1-.36-1.34c1.42-4.44,2.81-8.89,4.21-13.34,0,0,.12-.09.25-.18,2.81,3.43,5.58,6.84,8.38,10.21a1.48,1.48,0,0,1,.37,1.57C43.53,123,42.23,127.12,40.92,131.27Zm8.86-27.37c-.09.28-.05.7-.41.75s-.46-.35-.66-.58c-2.6-3.18-5.2-6.36-7.83-9.52a1.26,1.26,0,0,1-.35-1.35c1.42-4.44,2.8-8.89,4.2-13.34,0,0,.12-.08.25-.18,2.81,3.44,5.58,6.84,8.38,10.21a1.46,1.46,0,0,1,.37,1.57C52.39,95.6,51.09,99.75,49.78,103.9Zm9.06-27.3c-.09.28-.05.71-.41.75s-.46-.35-.66-.58c-2.6-3.18-5.2-6.36-7.83-9.52a1.26,1.26,0,0,1-.35-1.35c1.41-4.44,2.8-8.89,4.2-13.33,0-.06.12-.09.25-.19,2.81,3.44,5.58,6.84,8.38,10.21a1.46,1.46,0,0,1,.37,1.57C61.45,68.3,60.15,72.45,58.84,76.6Z" transform="translate(-22.06 -13.48)"/><circle class="cls-1" cx="47.44" cy="12.25" r="12.25"/><path class="cls-1" d="M113.21,52,49.1,138a13.75,13.75,0,0,0,2.81,19.18l52.65,39.22a13.74,13.74,0,0,0,19.18-2.8l64.1-86A13.75,13.75,0,0,0,185,88.39L132.39,49.16A13.75,13.75,0,0,0,113.21,52Zm-16,48.93c-1.38-3.87-2.75-7.74-4.16-11.6a1.26,1.26,0,0,1,.12-1.39q4.24-5.55,8.46-11.13s.14,0,.29-.09c1.49,4.18,3,8.32,4.45,12.43a1.5,1.5,0,0,1-.18,1.61c-2.66,3.45-5.28,6.92-7.92,10.38-.18.23-.28.65-.63.57S97.31,101.19,97.21,100.9ZM79.84,123.82c-1.38-3.87-2.75-7.74-4.16-11.6a1.26,1.26,0,0,1,.12-1.39Q80,105.28,84.26,99.7s.14,0,.29-.09C86,103.79,87.49,107.93,89,112a1.46,1.46,0,0,1-.18,1.61q-4,5.17-7.91,10.38c-.18.23-.28.65-.64.57S79.94,124.11,79.84,123.82Zm-17,23.7c-.34-.07-.32-.49-.43-.77-1.38-3.87-2.75-7.74-4.16-11.61a1.26,1.26,0,0,1,.12-1.39c2.84-3.7,5.64-7.42,8.46-11.13,0-.05.14,0,.29-.09,1.49,4.19,3,8.32,4.45,12.44a1.5,1.5,0,0,1-.18,1.61c-2.66,3.44-5.28,6.91-7.92,10.37C63.34,147.18,63.24,147.6,62.89,147.52Zm89.16-57.27a30.86,30.86,0,0,1,6.29,43.06L140,158a30.86,30.86,0,0,1-43.06,6.29h0a30.86,30.86,0,0,1-6.29-43.06L109,96.54a30.86,30.86,0,0,1,43.06-6.29ZM123.46,66.57a1.48,1.48,0,0,1-.18,1.61c-2.66,3.44-5.28,6.91-7.92,10.37-.17.24-.27.65-.63.58s-.32-.5-.42-.78c-1.39-3.87-2.76-7.74-4.16-11.6a1.26,1.26,0,0,1,.12-1.39c2.83-3.7,5.63-7.42,8.45-11.13,0,0,.14,0,.3-.09C120.51,58.32,122,62.45,123.46,66.57Z" transform="translate(-22.06 -13.48)"/></svg>