<?xml version="1.0" encoding="UTF-8" standalone="no"?>
<!-- Created with Inkscape (http://www.inkscape.org/) -->

<svg
   width="270.93335mm"
   height="270.93332mm"
   viewBox="0 0 270.93335 270.93332"
   version="1.1"
   id="svg1198"
   inkscape:version="1.1 (c68e22c387, 2021-05-23)"
   sodipodi:docname="isotipo.svg"
   xmlns:inkscape="http://www.inkscape.org/namespaces/inkscape"
   xmlns:sodipodi="http://sodipodi.sourceforge.net/DTD/sodipodi-0.dtd"
   xmlns="http://www.w3.org/2000/svg"
   xmlns:svg="http://www.w3.org/2000/svg">
  <sodipodi:namedview
     id="namedview1200"
     pagecolor="#505050"
     bordercolor="#ffffff"
     borderopacity="1"
     inkscape:pageshadow="0"
     inkscape:pageopacity="0"
     inkscape:pagecheckerboard="1"
     inkscape:document-units="mm"
     showgrid="false"
     fit-margin-top="0"
     fit-margin-left="0"
     fit-margin-right="0"
     fit-margin-bottom="0"
     inkscape:zoom="0.24943884"
     inkscape:cx="-322.7244"
     inkscape:cy="398.89538"
     inkscape:window-width="1366"
     inkscape:window-height="745"
     inkscape:window-x="-8"
     inkscape:window-y="-8"
     inkscape:window-maximized="1"
     inkscape:current-layer="layer1" />
  <defs
     id="defs1195">
    <filter
       style="color-interpolation-filters:sRGB"
       inkscape:label="Invert"
       id="filter830"
       x="0"
       y="0"
       width="1"
       height="1">
      <feColorMatrix
         type="hueRotate"
         values="180"
         result="color1"
         id="feColorMatrix826" />
      <feColorMatrix
         values="-1 0 0 0 1 0 -1 0 0 1 0 0 -1 0 1 -0.21 -0.72 -0.07 2 0 "
         result="fbSourceGraphic"
         id="feColorMatrix828" />
      <feColorMatrix
         result="fbSourceGraphicAlpha"
         in="fbSourceGraphic"
         values="0 0 0 -1 0 0 0 0 -1 0 0 0 0 -1 0 0 0 0 1 0"
         id="feColorMatrix833" />
      <feColorMatrix
         id="feColorMatrix835"
         type="hueRotate"
         values="180"
         result="color1"
         in="fbSourceGraphic" />
      <feColorMatrix
         id="feColorMatrix837"
         values="-1 0 0 0 1 0 -1 0 0 1 0 0 -1 0 1 -0.21 -0.72 -0.07 2 0 "
         result="fbSourceGraphic" />
      <feColorMatrix
         result="fbSourceGraphicAlpha"
         in="fbSourceGraphic"
         values="0 0 0 -1 0 0 0 0 -1 0 0 0 0 -1 0 0 0 0 1 0"
         id="feColorMatrix863" />
      <feColorMatrix
         id="feColorMatrix865"
         type="hueRotate"
         values="180"
         result="color1"
         in="fbSourceGraphic" />
      <feColorMatrix
         id="feColorMatrix867"
         values="-1 0 0 0 1 0 -1 0 0 1 0 0 -1 0 1 -0.21 -0.72 -0.07 2 0 "
         result="color2" />
    </filter>
    <filter
       style="color-interpolation-filters:sRGB"
       inkscape:label="Invert"
       id="filter836"
       x="0"
       y="0"
       width="1"
       height="1">
      <feColorMatrix
         type="hueRotate"
         values="180"
         result="color1"
         id="feColorMatrix832" />
      <feColorMatrix
         values="-1 0 0 0 1 0 -1 0 0 1 0 0 -1 0 1 -0.21 -0.72 -0.07 2 0 "
         result="fbSourceGraphic"
         id="feColorMatrix834" />
      <feColorMatrix
         result="fbSourceGraphicAlpha"
         in="fbSourceGraphic"
         values="0 0 0 -1 0 0 0 0 -1 0 0 0 0 -1 0 0 0 0 1 0"
         id="feColorMatrix839" />
      <feColorMatrix
         id="feColorMatrix841"
         type="hueRotate"
         values="180"
         result="color1"
         in="fbSourceGraphic" />
      <feColorMatrix
         id="feColorMatrix843"
         values="-1 0 0 0 1 0 -1 0 0 1 0 0 -1 0 1 -0.21 -0.72 -0.07 2 0 "
         result="fbSourceGraphic" />
      <feColorMatrix
         result="fbSourceGraphicAlpha"
         in="fbSourceGraphic"
         values="0 0 0 -1 0 0 0 0 -1 0 0 0 0 -1 0 0 0 0 1 0"
         id="feColorMatrix869" />
      <feColorMatrix
         id="feColorMatrix871"
         type="hueRotate"
         values="180"
         result="color1"
         in="fbSourceGraphic" />
      <feColorMatrix
         id="feColorMatrix873"
         values="-1 0 0 0 1 0 -1 0 0 1 0 0 -1 0 1 -0.21 -0.72 -0.07 2 0 "
         result="color2" />
    </filter>
  </defs>
  <g
     inkscape:label="Layer 1"
     inkscape:groupmode="layer"
     id="layer1"
     transform="translate(-110.55196,-72.125251)">
    <g
       id="g26"
       transform="matrix(3.9272304,0,0,3.4469507,-1294.8957,-15.978807)"
       style="fill:#000000;fill-opacity:1;filter:url(#filter836)"
       inkscape:export-filename="C:\Users\RodrigoBestardPino\projects\rankio\public\isotipo.png"
       inkscape:export-xdpi="96"
       inkscape:export-ydpi="96">
      <path
         d="m 373.22,37.51 -3.38,-0.87 c -1.55,-0.4 -3.13,0.68 -3.54,2.41 l -8.33,35.09 c -0.41,1.73 0.51,3.45 2.06,3.85 l 3.38,0.87 c 1.55,0.4 3.13,-0.68 3.54,-2.41 l 8.33,-35.09 c 0.41,-1.73 -0.51,-3.45 -2.06,-3.85 z m -7.88,36.04 c -0.03,0.11 0.01,0.28 -0.14,0.31 -0.13,0.03 -0.2,-0.13 -0.28,-0.21 -1.14,-1.18 -2.28,-2.37 -3.43,-3.55 -0.16,-0.16 -0.24,-0.29 -0.19,-0.53 0.42,-1.82 0.84,-3.64 1.25,-5.46 0.01,-0.02 0.04,-0.04 0.09,-0.08 1.23,1.28 2.45,2.55 3.67,3.81 0.18,0.19 0.26,0.35 0.2,0.62 -0.39,1.69 -0.78,3.39 -1.17,5.09 z M 368,62.33 c -0.03,0.11 0.01,0.28 -0.14,0.31 -0.13,0.03 -0.2,-0.13 -0.28,-0.21 -1.14,-1.18 -2.28,-2.37 -3.43,-3.55 -0.16,-0.16 -0.24,-0.29 -0.19,-0.53 0.42,-1.82 0.84,-3.64 1.25,-5.46 0.01,-0.02 0.04,-0.04 0.09,-0.08 1.23,1.28 2.45,2.55 3.67,3.81 0.18,0.19 0.26,0.35 0.2,0.62 -0.39,1.69 -0.78,3.4 -1.17,5.09 z m 2.75,-11.19 c -0.03,0.11 0.01,0.28 -0.14,0.31 -0.13,0.03 -0.2,-0.13 -0.28,-0.21 -1.14,-1.18 -2.28,-2.37 -3.43,-3.55 -0.16,-0.16 -0.24,-0.29 -0.19,-0.53 0.42,-1.82 0.84,-3.64 1.25,-5.46 0.01,-0.02 0.04,-0.04 0.09,-0.08 1.23,1.28 2.45,2.55 3.67,3.81 0.18,0.19 0.26,0.35 0.2,0.62 -0.4,1.69 -0.78,3.39 -1.17,5.09 z"
         id="path20"
         style="fill:#000000;fill-opacity:1" />
      <circle
         cx="373.37"
         cy="30.469999"
         r="4.9099998"
         id="circle22"
         style="fill:#000000;fill-opacity:1" />
      <path
         class="st1"
         d="m 397.36,45.35 -28.2,32.46 c -1.98,2.28 -1.74,5.77 0.54,7.75 l 19.87,17.26 c 2.28,1.98 5.77,1.74 7.75,-0.54 l 28.2,-32.46 c 1.98,-2.28 1.74,-5.77 -0.54,-7.75 L 405.1,44.8 c -2.28,-1.98 -5.76,-1.73 -7.74,0.55 z m -7.87,19.08 c -0.44,-1.59 -0.87,-3.18 -1.31,-4.76 -0.06,-0.22 -0.07,-0.37 0.09,-0.55 1.24,-1.39 2.48,-2.8 3.72,-4.2 0.02,-0.02 0.06,-0.01 0.12,-0.03 0.47,1.72 0.93,3.41 1.4,5.1 0.07,0.25 0.06,0.43 -0.12,0.64 -1.16,1.3 -2.32,2.6 -3.48,3.91 -0.08,0.09 -0.13,0.25 -0.27,0.21 -0.13,-0.04 -0.11,-0.21 -0.15,-0.32 z m -7.63,8.64 c -0.44,-1.59 -0.87,-3.18 -1.31,-4.76 -0.06,-0.22 -0.07,-0.37 0.09,-0.55 1.24,-1.39 2.48,-2.8 3.72,-4.2 0.02,-0.02 0.06,-0.01 0.12,-0.03 0.47,1.72 0.93,3.41 1.4,5.1 0.07,0.25 0.06,0.43 -0.12,0.64 -1.16,1.3 -2.32,2.6 -3.48,3.91 -0.08,0.09 -0.13,0.25 -0.27,0.21 -0.13,-0.04 -0.12,-0.21 -0.15,-0.32 z m -7.48,8.96 c -0.13,-0.04 -0.11,-0.21 -0.15,-0.32 -0.44,-1.59 -0.87,-3.18 -1.31,-4.76 -0.06,-0.22 -0.07,-0.37 0.09,-0.55 1.24,-1.39 2.48,-2.8 3.72,-4.2 0.02,-0.02 0.06,-0.01 0.12,-0.03 0.47,1.72 0.93,3.41 1.4,5.1 0.07,0.25 0.06,0.43 -0.12,0.64 -1.16,1.3 -2.32,2.6 -3.48,3.91 -0.08,0.09 -0.14,0.25 -0.27,0.21 z m 37.35,-20.22 c 5.12,4.45 5.67,12.28 1.22,17.4 l -8.09,9.31 c -4.45,5.12 -12.28,5.67 -17.4,1.22 v 0 c -5.12,-4.45 -5.67,-12.28 -1.22,-17.4 l 8.09,-9.31 c 4.45,-5.12 12.28,-5.67 17.4,-1.22 z M 401.01,51.49 c 0.07,0.25 0.06,0.43 -0.12,0.64 -1.16,1.3 -2.32,2.61 -3.48,3.91 -0.08,0.09 -0.13,0.25 -0.27,0.21 -0.13,-0.04 -0.11,-0.21 -0.15,-0.32 -0.44,-1.59 -0.87,-3.18 -1.31,-4.76 -0.06,-0.22 -0.07,-0.37 0.09,-0.55 1.24,-1.39 2.48,-2.8 3.72,-4.2 0.02,-0.02 0.06,-0.01 0.12,-0.03 0.47,1.72 0.93,3.41 1.4,5.1 z"
         id="path24"
         style="fill:#000000;fill-opacity:1" />
    </g>
  </g>
</svg>
