<?xml version="1.0" encoding="UTF-8" standalone="no"?>
<!-- Generator: Adobe Illustrator 25.2.1, SVG Export Plug-In . SVG Version: 6.00 Build 0)  -->

<svg
   version="1.1"
   id="Capa_1"
   x="0px"
   y="0px"
   viewBox="0 0 280 138"
   style="enable-background:new 0 0 280 138;"
   xml:space="preserve"
   sodipodi:docname="logo.svg"
   inkscape:version="1.1 (c68e22c387, 2021-05-23)"
   xmlns:inkscape="http://www.inkscape.org/namespaces/inkscape"
   xmlns:sodipodi="http://sodipodi.sourceforge.net/DTD/sodipodi-0.dtd"
   xmlns="http://www.w3.org/2000/svg"
   xmlns:svg="http://www.w3.org/2000/svg"><defs
   id="defs39" /><sodipodi:namedview
   id="namedview37"
   pagecolor="#505050"
   bordercolor="#ffffff"
   borderopacity="1"
   inkscape:pageshadow="0"
   inkscape:pageopacity="0"
   inkscape:pagecheckerboard="1"
   showgrid="false"
   inkscape:zoom="1.8892857"
   inkscape:cx="114.06427"
   inkscape:cy="131.00189"
   inkscape:window-width="1366"
   inkscape:window-height="745"
   inkscape:window-x="-8"
   inkscape:window-y="-8"
   inkscape:window-maximized="1"
   inkscape:current-layer="Capa_1" />
<style
   type="text/css"
   id="style2">
	.st0{fill:#FBFBFB;}
	.st1{fill:#010101;}
</style>
<path
   class="st0"
   d="m 247.84136,124.84343 h -222 c -6.6,0 -12,-5.4 -12,-12 V 24.843428 c 0,-6.6 5.4,-12 12,-12 h 222 c 6.6,0 12,5.4 12,12 v 88.000002 c 0,6.6 -5.4,12 -12,12 z"
   id="path4"
   inkscape:export-filename="C:\Users\RodrigoBestardPino\projects\rankio\public\logotipo.png"
   inkscape:export-xdpi="96"
   inkscape:export-ydpi="96" />
<rect
   x="-97.96"
   y="213.13"
   style="fill:none;"
   width="33.23"
   height="83.08"
   id="rect6" />

<path
   class="st0"
   d="m 436.0894,121.04757 h -88 c -6.6,0 -12,-5.4 -12,-12 V 21.047572 c 0,-6.6 5.4,-11.9999997 12,-11.9999997 h 88 c 6.6,0 12,5.3999997 12,11.9999997 v 87.999998 c 0,6.6 -5.4,12 -12,12 z"
   id="path18"
   style="fill:#ffffff;fill-opacity:1"
   inkscape:export-filename="C:\Users\RodrigoBestardPino\projects\rankio\public\isotipo.png"
   inkscape:export-xdpi="96"
   inkscape:export-ydpi="96" />
<g
   id="g26"
   transform="matrix(1.2523689,0,0,1.2523689,-99.298417,-16.181621)"
   style="fill:#000000;fill-opacity:1"
   inkscape:export-filename="C:\Users\RodrigoBestardPino\projects\rankio\public\isotipo.png"
   inkscape:export-xdpi="96"
   inkscape:export-ydpi="96">
	<path
   d="m 373.22,37.51 -3.38,-0.87 c -1.55,-0.4 -3.13,0.68 -3.54,2.41 l -8.33,35.09 c -0.41,1.73 0.51,3.45 2.06,3.85 l 3.38,0.87 c 1.55,0.4 3.13,-0.68 3.54,-2.41 l 8.33,-35.09 c 0.41,-1.73 -0.51,-3.45 -2.06,-3.85 z m -7.88,36.04 c -0.03,0.11 0.01,0.28 -0.14,0.31 -0.13,0.03 -0.2,-0.13 -0.28,-0.21 -1.14,-1.18 -2.28,-2.37 -3.43,-3.55 -0.16,-0.16 -0.24,-0.29 -0.19,-0.53 0.42,-1.82 0.84,-3.64 1.25,-5.46 0.01,-0.02 0.04,-0.04 0.09,-0.08 1.23,1.28 2.45,2.55 3.67,3.81 0.18,0.19 0.26,0.35 0.2,0.62 -0.39,1.69 -0.78,3.39 -1.17,5.09 z M 368,62.33 c -0.03,0.11 0.01,0.28 -0.14,0.31 -0.13,0.03 -0.2,-0.13 -0.28,-0.21 -1.14,-1.18 -2.28,-2.37 -3.43,-3.55 -0.16,-0.16 -0.24,-0.29 -0.19,-0.53 0.42,-1.82 0.84,-3.64 1.25,-5.46 0.01,-0.02 0.04,-0.04 0.09,-0.08 1.23,1.28 2.45,2.55 3.67,3.81 0.18,0.19 0.26,0.35 0.2,0.62 -0.39,1.69 -0.78,3.4 -1.17,5.09 z m 2.75,-11.19 c -0.03,0.11 0.01,0.28 -0.14,0.31 -0.13,0.03 -0.2,-0.13 -0.28,-0.21 -1.14,-1.18 -2.28,-2.37 -3.43,-3.55 -0.16,-0.16 -0.24,-0.29 -0.19,-0.53 0.42,-1.82 0.84,-3.64 1.25,-5.46 0.01,-0.02 0.04,-0.04 0.09,-0.08 1.23,1.28 2.45,2.55 3.67,3.81 0.18,0.19 0.26,0.35 0.2,0.62 -0.4,1.69 -0.78,3.39 -1.17,5.09 z"
   id="path20"
   style="fill:#000000;fill-opacity:1" />
	<circle
   cx="373.37"
   cy="30.469999"
   r="4.9099998"
   id="circle22"
   style="fill:#000000;fill-opacity:1" />
	<path
   class="st1"
   d="m 397.36,45.35 -28.2,32.46 c -1.98,2.28 -1.74,5.77 0.54,7.75 l 19.87,17.26 c 2.28,1.98 5.77,1.74 7.75,-0.54 l 28.2,-32.46 c 1.98,-2.28 1.74,-5.77 -0.54,-7.75 L 405.1,44.8 c -2.28,-1.98 -5.76,-1.73 -7.74,0.55 z m -7.87,19.08 c -0.44,-1.59 -0.87,-3.18 -1.31,-4.76 -0.06,-0.22 -0.07,-0.37 0.09,-0.55 1.24,-1.39 2.48,-2.8 3.72,-4.2 0.02,-0.02 0.06,-0.01 0.12,-0.03 0.47,1.72 0.93,3.41 1.4,5.1 0.07,0.25 0.06,0.43 -0.12,0.64 -1.16,1.3 -2.32,2.6 -3.48,3.91 -0.08,0.09 -0.13,0.25 -0.27,0.21 -0.13,-0.04 -0.11,-0.21 -0.15,-0.32 z m -7.63,8.64 c -0.44,-1.59 -0.87,-3.18 -1.31,-4.76 -0.06,-0.22 -0.07,-0.37 0.09,-0.55 1.24,-1.39 2.48,-2.8 3.72,-4.2 0.02,-0.02 0.06,-0.01 0.12,-0.03 0.47,1.72 0.93,3.41 1.4,5.1 0.07,0.25 0.06,0.43 -0.12,0.64 -1.16,1.3 -2.32,2.6 -3.48,3.91 -0.08,0.09 -0.13,0.25 -0.27,0.21 -0.13,-0.04 -0.12,-0.21 -0.15,-0.32 z m -7.48,8.96 c -0.13,-0.04 -0.11,-0.21 -0.15,-0.32 -0.44,-1.59 -0.87,-3.18 -1.31,-4.76 -0.06,-0.22 -0.07,-0.37 0.09,-0.55 1.24,-1.39 2.48,-2.8 3.72,-4.2 0.02,-0.02 0.06,-0.01 0.12,-0.03 0.47,1.72 0.93,3.41 1.4,5.1 0.07,0.25 0.06,0.43 -0.12,0.64 -1.16,1.3 -2.32,2.6 -3.48,3.91 -0.08,0.09 -0.14,0.25 -0.27,0.21 z m 37.35,-20.22 c 5.12,4.45 5.67,12.28 1.22,17.4 l -8.09,9.31 c -4.45,5.12 -12.28,5.67 -17.4,1.22 v 0 c -5.12,-4.45 -5.67,-12.28 -1.22,-17.4 l 8.09,-9.31 c 4.45,-5.12 12.28,-5.67 17.4,-1.22 z M 401.01,51.49 c 0.07,0.25 0.06,0.43 -0.12,0.64 -1.16,1.3 -2.32,2.61 -3.48,3.91 -0.08,0.09 -0.13,0.25 -0.27,0.21 -0.13,-0.04 -0.11,-0.21 -0.15,-0.32 -0.44,-1.59 -0.87,-3.18 -1.31,-4.76 -0.06,-0.22 -0.07,-0.37 0.09,-0.55 1.24,-1.39 2.48,-2.8 3.72,-4.2 0.02,-0.02 0.06,-0.01 0.12,-0.03 0.47,1.72 0.93,3.41 1.4,5.1 z"
   id="path24"
   style="fill:#000000;fill-opacity:1" />
</g>
<g
   id="g1008"
   transform="matrix(1.0274639,0,0,1.0274639,-9.3877519,-0.82420825)"
   inkscape:export-filename="C:\Users\RodrigoBestardPino\projects\rankio\public\logotipo.png"
   inkscape:export-xdpi="96"
   inkscape:export-ydpi="96"><g
     id="g16">
	<path
   d="m 67.77,85.74 c 0.61,1.47 0.92,2.53 0.92,3.18 0,1.55 -1.26,2.85 -3.79,3.91 -1.31,0.57 -2.35,0.86 -3.15,0.86 -0.8,0 -1.45,-0.19 -1.96,-0.58 -0.51,-0.39 -0.89,-0.78 -1.13,-1.19 -0.41,-0.77 -2,-4.46 -4.77,-11.07 l -1.9,0.12 h -7.71 v 6.91 c 0,0.94 -0.03,1.64 -0.09,2.11 -0.06,0.47 -0.25,1.01 -0.58,1.62 -0.57,1.1 -2.16,1.65 -4.77,1.65 -2.85,0 -4.53,-0.75 -5.01,-2.26 -0.24,-0.69 -0.37,-1.75 -0.37,-3.18 V 53.88 c 0,-0.94 0.03,-1.64 0.09,-2.11 0.06,-0.47 0.25,-1.01 0.58,-1.62 0.57,-1.1 2.16,-1.65 4.77,-1.65 h 13.21 c 3.59,0 7.07,1.31 10.46,3.91 1.63,1.26 2.98,2.98 4.04,5.14 1.06,2.16 1.59,4.57 1.59,7.22 0,4.61 -1.53,8.4 -4.59,11.37 0.9,2.16 2.28,5.36 4.16,9.6 z M 44.29,70.15 h 7.83 c 1.18,0 2.36,-0.45 3.55,-1.35 1.18,-0.9 1.77,-2.24 1.77,-4.04 0,-1.79 -0.59,-3.15 -1.77,-4.07 C 54.49,59.77 53.26,59.31 52,59.31 h -7.71 z"
   id="path8" />
	<path
   d="m 91.74,64.52 c 0.24,-2.28 1.85,-3.42 4.83,-3.42 1.59,0 2.77,0.12 3.55,0.37 0.77,0.24 1.31,0.67 1.62,1.28 0.31,0.61 0.49,1.15 0.55,1.62 0.06,0.47 0.09,1.17 0.09,2.11 v 21.4 c 0,0.94 -0.03,1.64 -0.09,2.11 -0.06,0.47 -0.23,1.01 -0.52,1.62 -0.57,1.06 -1.97,1.59 -4.19,1.59 -2.22,0 -3.71,-0.28 -4.46,-0.83 -0.75,-0.55 -1.19,-1.35 -1.31,-2.42 -1.51,2.16 -4.03,3.24 -7.55,3.24 -3.53,0 -6.8,-1.61 -9.81,-4.83 -3.02,-3.22 -4.53,-6.96 -4.53,-11.22 0,-4.26 1.52,-7.99 4.56,-11.19 3.04,-3.2 6.37,-4.8 10,-4.8 1.39,0 2.65,0.24 3.79,0.73 1.14,0.49 1.94,0.95 2.39,1.38 0.43,0.43 0.8,0.85 1.08,1.26 z M 80.61,77.24 c 0,1.35 0.53,2.56 1.59,3.64 1.06,1.08 2.34,1.62 3.85,1.62 1.51,0 2.76,-0.55 3.76,-1.65 1,-1.1 1.5,-2.31 1.5,-3.64 0,-1.32 -0.48,-2.56 -1.44,-3.7 -0.96,-1.14 -2.24,-1.71 -3.85,-1.71 -1.61,0 -2.92,0.57 -3.91,1.71 -1,1.14 -1.5,2.38 -1.5,3.73 z"
   id="path10" />
	<path
   d="m 125.19,61.09 c 4.08,0 7.47,1.56 10.18,4.68 2.71,3.12 4.07,6.92 4.07,11.4 v 10.76 c 0,0.94 -0.03,1.64 -0.09,2.11 -0.06,0.47 -0.24,0.99 -0.52,1.56 -0.57,1.1 -2.16,1.65 -4.77,1.65 -2.9,0 -4.57,-0.75 -5.01,-2.26 -0.24,-0.69 -0.37,-1.73 -0.37,-3.12 V 77.12 c 0,-1.67 -0.48,-2.98 -1.44,-3.91 -0.96,-0.94 -2.24,-1.41 -3.85,-1.41 -1.61,0 -2.92,0.49 -3.91,1.47 -1,0.98 -1.5,2.26 -1.5,3.85 v 10.82 c 0,0.94 -0.03,1.64 -0.09,2.11 -0.06,0.47 -0.26,0.99 -0.58,1.56 -0.53,1.1 -2.1,1.65 -4.71,1.65 -2.57,0 -4.14,-0.55 -4.71,-1.65 -0.29,-0.61 -0.46,-1.15 -0.52,-1.62 -0.06,-0.47 -0.09,-1.17 -0.09,-2.11 V 66.23 c 0,-0.9 0.03,-1.58 0.09,-2.05 0.06,-0.47 0.25,-0.99 0.58,-1.56 0.57,-1.02 2.14,-1.53 4.71,-1.53 2.49,0 4.02,0.47 4.59,1.41 0.41,0.69 0.61,1.53 0.61,2.51 0.16,-0.28 0.53,-0.69 1.1,-1.22 0.57,-0.53 1.12,-0.96 1.65,-1.28 1.38,-0.95 2.91,-1.42 4.58,-1.42 z"
   id="path12" />
	<path
   d="m 163.29,77.18 8.13,6.73 c 1.02,0.86 1.66,1.51 1.93,1.96 0.27,0.45 0.4,0.88 0.4,1.28 0,0.98 -0.63,2.3 -1.9,3.98 -1.39,1.71 -2.61,2.57 -3.67,2.57 -0.9,0 -2.14,-0.59 -3.73,-1.77 l -0.61,-0.43 c -0.94,-0.77 -2.39,-2.13 -4.34,-4.07 -1.96,-1.94 -3.45,-3.31 -4.46,-4.13 V 88 c 0,0.94 -0.03,1.64 -0.09,2.11 -0.06,0.47 -0.26,1.01 -0.58,1.62 -0.53,1.06 -2.1,1.59 -4.71,1.59 -2.57,0 -4.14,-0.55 -4.71,-1.65 -0.29,-0.61 -0.46,-1.15 -0.52,-1.62 -0.06,-0.47 -0.09,-1.17 -0.09,-2.11 V 51.31 c 0,-0.94 0.03,-1.64 0.09,-2.11 0.06,-0.47 0.23,-1.01 0.52,-1.62 0.57,-1.1 2.16,-1.65 4.77,-1.65 1.96,0 3.34,0.35 4.16,1.04 0.69,0.57 1.06,1.47 1.1,2.69 0.04,0.37 0.06,0.94 0.06,1.71 v 19.39 c 0.73,-0.61 1.84,-1.65 3.33,-3.12 1.49,-1.47 2.6,-2.51 3.33,-3.12 l 0.73,-0.49 c 1.43,-1.1 2.65,-1.65 3.67,-1.65 1.02,0 2.19,0.83 3.52,2.48 1.32,1.65 1.99,2.95 1.99,3.88 0,0.94 -0.75,2.04 -2.26,3.3 z"
   id="path14" />
</g><g
     id="g34">
	<path
   d="m 197.55,40.46 -3.38,-0.87 c -1.55,-0.4 -3.13,0.68 -3.54,2.41 l -8.33,35.09 c -0.41,1.73 0.51,3.45 2.06,3.85 l 3.38,0.87 c 1.55,0.4 3.13,-0.68 3.54,-2.41 l 8.33,-35.09 c 0.4,-1.73 -0.52,-3.45 -2.06,-3.85 z m -7.89,36.04 c -0.03,0.11 0.01,0.28 -0.14,0.31 -0.13,0.03 -0.2,-0.13 -0.28,-0.21 -1.14,-1.18 -2.28,-2.37 -3.43,-3.55 -0.16,-0.16 -0.24,-0.29 -0.19,-0.53 0.42,-1.82 0.84,-3.64 1.25,-5.46 0.01,-0.02 0.04,-0.04 0.09,-0.08 1.23,1.28 2.45,2.55 3.67,3.81 0.18,0.19 0.26,0.35 0.2,0.62 -0.39,1.69 -0.77,3.39 -1.17,5.09 z m 2.67,-11.22 c -0.03,0.11 0.01,0.28 -0.14,0.31 -0.13,0.03 -0.2,-0.13 -0.28,-0.21 -1.14,-1.18 -2.28,-2.37 -3.43,-3.55 -0.16,-0.16 -0.24,-0.29 -0.19,-0.53 0.42,-1.82 0.84,-3.64 1.25,-5.46 0.01,-0.02 0.04,-0.04 0.09,-0.08 1.23,1.28 2.45,2.55 3.67,3.81 0.18,0.19 0.26,0.35 0.2,0.62 -0.4,1.69 -0.78,3.39 -1.17,5.09 z m 2.74,-11.2 c -0.03,0.11 0.01,0.28 -0.14,0.31 -0.13,0.03 -0.2,-0.13 -0.28,-0.21 -1.14,-1.18 -2.28,-2.37 -3.43,-3.55 -0.16,-0.16 -0.24,-0.29 -0.19,-0.53 0.42,-1.82 0.84,-3.64 1.25,-5.46 0.01,-0.02 0.04,-0.04 0.09,-0.08 1.23,1.28 2.45,2.55 3.67,3.81 0.18,0.19 0.26,0.35 0.2,0.62 -0.39,1.7 -0.78,3.4 -1.17,5.09 z"
   id="path28" />
	<circle
   cx="197.7"
   cy="33.419998"
   r="4.9099998"
   id="circle30" />
	<path
   class="st1"
   d="m 221.68,48.29 -28.2,32.46 c -1.98,2.28 -1.74,5.77 0.54,7.75 l 19.87,17.26 c 2.28,1.98 5.77,1.74 7.75,-0.54 l 28.2,-32.46 c 1.98,-2.28 1.74,-5.77 -0.54,-7.75 L 229.43,47.75 c -2.28,-1.98 -5.77,-1.74 -7.75,0.54 z m -7.86,19.08 c -0.44,-1.59 -0.87,-3.18 -1.31,-4.76 -0.06,-0.22 -0.07,-0.37 0.09,-0.55 1.24,-1.39 2.48,-2.8 3.72,-4.2 0.02,-0.02 0.06,-0.01 0.12,-0.03 0.47,1.72 0.93,3.41 1.4,5.1 0.07,0.25 0.06,0.43 -0.12,0.64 -1.16,1.3 -2.32,2.6 -3.48,3.91 -0.08,0.09 -0.13,0.25 -0.27,0.21 -0.14,-0.03 -0.12,-0.2 -0.15,-0.32 z m -7.63,8.64 c -0.44,-1.59 -0.87,-3.18 -1.31,-4.76 -0.06,-0.22 -0.07,-0.37 0.09,-0.55 1.24,-1.39 2.48,-2.8 3.72,-4.2 0.02,-0.02 0.06,-0.01 0.12,-0.03 0.47,1.72 0.93,3.41 1.4,5.1 0.07,0.25 0.06,0.43 -0.12,0.64 -1.16,1.3 -2.32,2.6 -3.48,3.91 -0.08,0.09 -0.13,0.25 -0.27,0.21 -0.14,-0.03 -0.12,-0.2 -0.15,-0.32 z m -7.49,8.97 c -0.13,-0.04 -0.11,-0.21 -0.15,-0.32 -0.44,-1.59 -0.87,-3.18 -1.31,-4.76 -0.06,-0.22 -0.07,-0.37 0.09,-0.55 1.24,-1.39 2.48,-2.8 3.72,-4.2 0.02,-0.02 0.06,-0.01 0.12,-0.03 0.47,1.72 0.93,3.41 1.4,5.1 0.07,0.25 0.06,0.43 -0.12,0.64 -1.16,1.3 -2.32,2.6 -3.48,3.91 -0.08,0.09 -0.13,0.25 -0.27,0.21 z m 37.35,-20.22 c 5.12,4.45 5.67,12.28 1.22,17.4 l -8.09,9.31 c -4.45,5.12 -12.28,5.67 -17.4,1.22 v 0 c -5.12,-4.45 -5.67,-12.28 -1.22,-17.4 l 8.09,-9.31 c 4.45,-5.12 12.28,-5.67 17.4,-1.22 z M 225.34,54.44 c 0.07,0.25 0.06,0.43 -0.12,0.64 -1.16,1.3 -2.32,2.61 -3.48,3.91 -0.08,0.09 -0.13,0.25 -0.27,0.21 -0.13,-0.04 -0.11,-0.21 -0.15,-0.32 -0.44,-1.59 -0.87,-3.18 -1.31,-4.76 -0.06,-0.22 -0.07,-0.37 0.09,-0.55 1.24,-1.39 2.48,-2.8 3.72,-4.2 0.02,-0.02 0.06,-0.01 0.12,-0.03 0.47,1.71 0.92,3.41 1.4,5.1 z"
   id="path32" />
</g></g>
</svg>
